<svg width="357" height="225" viewBox="0 0 357 225" fill="none" xmlns="http://www.w3.org/2000/svg">
<path fill-rule="evenodd" clip-rule="evenodd" d="M23.7 180.3C28.7 180.3 32.6 182.3 35.5 186.2C38.4 190.1 39.8 195.5 39.8 202.3C39.8 209.3 38.3 214.7 35.4 218.6C32.5 222.5 28.5 224.4 23.5 224.4C18.5 224.4 14.6 222.6 11.8 219H11L9.5 222.8C9.3 223.3 8.7 223.7 8.1 223.7H1.5C0.7 223.7 0 223 0 222.2V166C0 165.2 0.7 164.5 1.5 164.5H10.1C10.9 164.5 11.6 165.2 11.6 166V178.2C11.6 179.9 11.4 182.7 11.1 186.6H11.6C14.3 182.5 18.3 180.3 23.7 180.3ZM19.9 189.6C17 189.6 15 190.5 13.7 192.2C12.4 194 11.7 196.8 11.7 200.9V202.1C11.7 206.7 12.4 210 13.7 211.9C15.1 213.9 17.2 214.9 20.1 214.9C22.5 214.9 24.4 213.8 25.8 211.6C27.2 209.4 27.9 206.3 27.9 202.1C27.9 197.9 27.2 194.8 25.8 192.7C24.3 190.7 22.3 189.6 19.9 189.6ZM58.8 223.6H50.2C49.4 223.6 48.7 222.9 48.7 222.1V182.6C48.7 181.8 49.4 181.1 50.2 181.1H58.8C59.6 181.1 60.3 181.8 60.3 182.6V222.1C60.3 223 59.6 223.6 58.8 223.6ZM90.3 215.2C92 215.2 94 214.9 96.3 214.3C97 214.1 97.6 214.6 97.6 215.2V221.8C97.6 222.2 97.4 222.6 97 222.7C94.2 223.8 90.9 224.4 86.9 224.4C82.3 224.4 78.9 223.2 76.8 220.9C74.6 218.6 73.6 215.1 73.6 210.4V190H69C68.5 190 68 189.6 68 189V185.2C68 185.2 68 185 68.1 185L74.3 181.2L77.4 172.9C77.5 172.5 77.9 172.2 78.4 172.2H84.2C84.7 172.2 85.2 172.6 85.2 173.2V181.2H96.6C96.9 181.2 97.1 181.4 97.1 181.7V188.9C97.1 189.4 96.7 189.9 96.1 189.9H85.3V210.3C85.3 212 85.8 213.2 86.7 213.9C87.5 214.7 88.8 215.2 90.3 215.2ZM144 223.6C142.9 223.6 141.9 222.9 141.6 221.9L133.2 196C132.6 194.1 131.9 191.4 130.9 187.7H130.7L129.9 190.5L128.2 196L119.6 221.8C119.2 222.8 118.3 223.5 117.2 223.5C116.1 223.5 115.1 222.7 114.8 221.7L104.2 184.6C103.8 183.4 104.7 182.3 106 182.3H106.2C107 182.3 107.7 182.8 108 183.6L114.2 206.2C115.7 212.1 116.7 216.5 117.2 219.3H117.4C118.9 213.3 120 209.4 120.7 207.5L128.7 183.9C129 183 130 182.3 131 182.3C132 182.3 133 183 133.2 184L140.7 207.5C142.5 213.4 143.6 217.4 144 219.3H144.2C144.4 217.6 145.4 213.2 147.2 206.1L153.1 183.8C153.3 183 154.1 182.4 154.9 182.4C156.1 182.4 157 183.5 156.7 184.7L146.7 221.8C146.4 222.9 145.4 223.6 144.3 223.6H144ZM191.4 223.6C190.7 223.6 190 223.1 189.9 222.3L189.1 217.1H188.8C186.7 219.8 184.6 221.6 182.4 222.8C180.2 223.9 177.7 224.5 174.7 224.5C170.7 224.5 167.5 223.5 165.2 221.4C163.2 219.6 162.1 217.1 161.9 214C161.6 209.9 163.3 205.9 166.7 203.6C170.1 201.3 175 200.1 181.4 200L189.3 199.8V197.1C189.3 193.2 188.5 190.2 186.9 188.3C185.3 186.3 182.7 185.3 179.2 185.3C175.9 185.3 172.5 186.1 168.9 187.7C168 188.1 166.9 187.7 166.6 186.8C166.2 185.9 166.7 184.9 167.5 184.5C171.5 182.8 175.4 182 179.3 182C183.8 182 187.2 183.2 189.5 185.5C191.8 187.9 192.9 191.5 192.9 196.5V222.5C192.9 223 192.2 223.6 191.4 223.6ZM175 220.9C179.4 220.9 182.9 219.6 185.4 217.1C188 214.6 189.2 211.1 189.2 206.6V202.6L182 202.9C176.2 203.2 172.1 204.1 169.6 205.6C167.1 207.1 165.9 209.5 165.9 212.7C165.9 215.3 166.7 217.3 168.3 218.7C169.8 220.2 172.1 220.9 175 220.9ZM222.2 181.5C223.4 181.5 224.6 181.6 226 181.7C227 181.8 227.7 182.8 227.5 183.8C227.3 184.8 226.4 185.3 225.4 185.2C224.2 185 223 184.9 221.8 184.9C218.3 184.9 215.4 186.4 213.1 189.3C210.9 192.3 209.7 196.1 209.7 200.6V221.5C209.7 222.5 208.9 223.4 207.8 223.4C206.8 223.4 205.9 222.6 205.9 221.5V184C205.9 183.1 206.6 182.3 207.6 182.3C208.5 182.3 209.2 183 209.2 183.8L209.5 189.7H209.7C211.4 186.7 213.2 184.5 215.1 183.3C217.1 182.2 219.5 181.5 222.2 181.5ZM250.2 181.5C253.2 181.5 255.8 182 257.9 183.1C260.1 184.2 262 186.1 263.7 188.7H263.9C263.7 185.5 263.7 182.4 263.7 179.3V166.3C263.7 165.3 264.5 164.5 265.5 164.5C266.5 164.5 267.3 165.3 267.3 166.3V222.2C267.3 222.9 266.7 223.5 266 223.5C265.3 223.5 264.8 223 264.7 222.4L263.9 217.2H263.6C260.5 221.9 255.9 224.3 250.1 224.3C244.4 224.3 240.1 222.5 237 219C234 215.4 232.5 210.3 232.5 203.5C232.5 196.4 234 190.9 236.9 187.2C240.2 183.4 244.5 181.5 250.2 181.5ZM250.2 185C245.7 185 242.3 186.6 240 189.8C237.8 193 236.6 197.6 236.6 203.6C236.6 215.3 241.1 221.1 250.2 221.1C254.8 221.1 258.3 219.7 260.4 217.1C262.6 214.4 263.7 209.9 263.7 203.7V203C263.7 196.6 262.6 192 260.5 189.2C258.5 186.3 255 185 250.2 185ZM298.1 224.4C292.1 224.4 287.4 222.6 284.1 218.9C280.8 215.2 279.1 210.1 279.1 203.4C279.1 196.8 280.7 191.6 284 187.6C287.3 183.6 291.6 181.6 297.1 181.6C302 181.6 305.8 183.3 308.6 186.7C311.4 190.1 312.8 194.7 312.8 200.5V203.5H283C283 209.1 284.4 213.5 287 216.5C289.6 219.5 293.3 220.9 298.1 220.9C300.5 220.9 302.5 220.7 304.3 220.4C305.6 220.2 307.2 219.7 308.9 219.1C310 218.7 311.1 219.5 311.1 220.6C311.1 221.3 310.7 221.8 310.1 222.1C308.1 222.9 306.3 223.4 304.7 223.8C302.6 224.2 300.5 224.4 298.1 224.4ZM296.9 184.9C292.9 184.9 289.7 186.2 287.3 188.8C284.9 191.4 283.5 195.2 283.1 200.2H308.6C308.6 195.4 307.6 191.7 305.5 189C303.5 186.2 300.6 184.9 296.9 184.9ZM354.7 223.6C353.7 223.6 352.9 222.8 352.9 221.8V196.9C352.9 192.7 352 189.7 350.3 187.9C348.6 186 345.8 185 342.1 185C337.2 185 333.5 186.2 331.3 188.8C329 191.3 327.8 195.3 327.8 200.9V221.8C327.8 222.8 327 223.6 326 223.6C325 223.6 324.2 222.8 324.2 221.8V184C324.2 183 325 182.3 325.9 182.3C326.7 182.3 327.4 183 327.6 183.8L328.1 188H328.3C331 183.7 335.7 181.5 342.6 181.5C352 181.5 356.6 186.6 356.6 196.6V221.7C356.5 222.8 355.7 223.6 354.7 223.6ZM54.5 163.9C50.8 163.9 47.7 166.8 47.7 170.4V170.9C47.7 174.4 50.7 177.4 54.5 177.4C58.3 177.4 61.3 174.5 61.3 170.9V170.4C61.3 166.8 58.2 163.9 54.5 163.9ZM240.5 1.9C239.2 0.7 237.7 0 236 0H120.6C118.9 0 117.3 0.7 116.1 1.9C114.8 3.1 114.2 4.7 114.2 6.4V83.4C114.2 89.2 115.3 94.8 117.5 100.4C119.7 106 122.5 111 125.8 115.4C129.1 119.8 133.1 124 137.6 128.2C142.2 132.4 146.4 135.8 150.2 138.6C154.1 141.3 158.1 143.9 162.3 146.4C166.5 148.8 169.5 150.5 171.3 151.3C173.1 152.2 174.5 152.8 175.6 153.3C176.4 153.7 177.3 153.9 178.2 153.9C179.1 153.9 180 153.7 180.8 153.3C181.9 152.8 183.3 152.2 185.1 151.3C186.9 150.4 189.9 148.8 194.1 146.4C198.3 144 202.3 141.4 206.2 138.6C210.1 135.9 214.3 132.4 218.9 128.2C223.5 124 227.4 119.8 230.7 115.4C234 111 236.8 106 239 100.4C241.3 94.8 242.3 89.1 242.3 83.4V6.4C242.4 4.7 241.7 3.2 240.5 1.9ZM225.6 84.1C225.6 112 178.3 135.9 178.3 135.9V16.5H225.6C225.6 16.5 225.6 56.2 225.6 84.1Z" fill="#175DDC"/>
</svg>
